<svg xmlns="http://www.w3.org/2000/svg" xmlns:xlink="http://www.w3.org/1999/xlink" width="1660" height="994" overflow="hidden"><defs><clipPath id="clip0"><rect width="1660" height="994" x="2277" y="1352"/></clipPath><clipPath id="clip1"><rect width="1650" height="990" x="2282" y="1354"/></clipPath><clipPath id="clip2"><rect width="1650" height="990" x="2282" y="1354"/></clipPath><clipPath id="clip3"><rect width="1493" height="717" x="2392" y="1524"/></clipPath><clipPath id="clip4"><rect width="1650" height="990" x="2282" y="1354"/></clipPath><clipPath id="clip5"><rect width="1650" height="990" x="2282" y="1354"/></clipPath><clipPath id="clip6"><rect width="1650" height="990" x="2282" y="1354"/></clipPath><clipPath id="clip7"><rect width="1650" height="990" x="2282" y="1354"/></clipPath><clipPath id="clip8"><rect width="1650" height="990" x="2282" y="1354"/></clipPath><clipPath id="clip9"><rect width="1650" height="990" x="2282" y="1354"/></clipPath><clipPath id="clip10"><rect width="1650" height="990" x="2282" y="1354"/></clipPath><clipPath id="clip11"><rect width="1650" height="990" x="2282" y="1354"/></clipPath><clipPath id="clip12"><rect width="1650" height="990" x="2282" y="1354"/></clipPath><clipPath id="clip13"><rect width="1650" height="990" x="2282" y="1354"/></clipPath><clipPath id="clip14"><rect width="1650" height="990" x="2282" y="1354"/></clipPath><clipPath id="clip15"><rect width="1650" height="990" x="2282" y="1354"/></clipPath><clipPath id="clip16"><rect width="1650" height="990" x="2282" y="1354"/></clipPath><clipPath id="clip17"><rect width="1650" height="990" x="2282" y="1354"/></clipPath><clipPath id="clip18"><rect width="1650" height="990" x="2282" y="1354"/></clipPath><clipPath id="clip19"><rect width="1650" height="990" x="2282" y="1354"/></clipPath><clipPath id="clip20"><rect width="1650" height="990" x="2282" y="1354"/></clipPath><clipPath id="clip21"><rect width="1650" height="990" x="2282" y="1354"/></clipPath><clipPath id="clip22"><rect width="1650" height="990" x="2282" y="1354"/></clipPath><clipPath id="clip23"><rect width="1650" height="990" x="2282" y="1354"/></clipPath></defs><g clip-path="url(#clip0)" transform="translate(-2277 -1352)"><rect width="1649" height="990" x="2283" y="1354" fill="#FFF" fill-opacity="1"/><g clip-path="url(#clip1)"><path fill="none" fill-rule="nonzero" stroke="#D9D9D9" stroke-linecap="butt" stroke-linejoin="round" stroke-miterlimit="10" stroke-opacity="1" stroke-width="3.438" d="M2392.5 2136.57 3882.5 2136.57M2392.5 2034.57 3882.5 2034.57M2392.5 1932.56 3882.5 1932.56M2392.5 1830.56 3882.5 1830.56M2392.5 1728.56 3882.5 1728.56M2392.5 1626.55 3882.5 1626.55M2392.5 1524.5 3882.5 1524.5"/></g><g clip-path="url(#clip2)"><path fill="none" fill-rule="evenodd" stroke="#D9D9D9" stroke-linecap="butt" stroke-linejoin="round" stroke-miterlimit="10" stroke-opacity="1" stroke-width="3.438" d="M2392.5 2238.5 3882.5 2238.5"/></g><g clip-path="url(#clip3)"><path fill="none" fill-rule="nonzero" stroke="#4472C4" stroke-linecap="round" stroke-linejoin="round" stroke-miterlimit="10" stroke-opacity="1" stroke-width="10.313" d="M2460 2165 2595.08 2144.07 2731.09 2114.07 2866.09 2075.07 3002.1 2034.07 3137.1 1999.07 3273.11 1957.06 3408.11 1904.06 3543.12 1834.06 3679.12 1740.06 3814 1608"/></g><g clip-path="url(#clip4)"><text fill="#595959" fill-opacity="1" direction="ltr" font-family="Calibri,Calibri_MSFontService,sans-serif" font-size="41" font-stretch="normal" font-style="normal" font-variant="normal" font-weight="400" text-anchor="start" text-decoration="none" transform="matrix(1 0 0 1 2333.19 2249)" unicode-bidi="normal" writing-mode="lr-tb">0</text></g><g clip-path="url(#clip5)"><text fill="#595959" fill-opacity="1" direction="ltr" font-family="Calibri,Calibri_MSFontService,sans-serif" font-size="41" font-stretch="normal" font-style="normal" font-variant="normal" font-weight="400" text-anchor="start" text-decoration="none" transform="matrix(1 0 0 1 2333.19 2147)" unicode-bidi="normal" writing-mode="lr-tb">5</text></g><g clip-path="url(#clip6)"><text fill="#595959" fill-opacity="1" direction="ltr" font-family="Calibri,Calibri_MSFontService,sans-serif" font-size="41" font-stretch="normal" font-style="normal" font-variant="normal" font-weight="400" text-anchor="start" text-decoration="none" transform="matrix(1 0 0 1 2312.29 2045)" unicode-bidi="normal" writing-mode="lr-tb">10</text></g><g clip-path="url(#clip7)"><text fill="#595959" fill-opacity="1" direction="ltr" font-family="Calibri,Calibri_MSFontService,sans-serif" font-size="41" font-stretch="normal" font-style="normal" font-variant="normal" font-weight="400" text-anchor="start" text-decoration="none" transform="matrix(1 0 0 1 2312.29 1943)" unicode-bidi="normal" writing-mode="lr-tb">15</text></g><g clip-path="url(#clip8)"><text fill="#595959" fill-opacity="1" direction="ltr" font-family="Calibri,Calibri_MSFontService,sans-serif" font-size="41" font-stretch="normal" font-style="normal" font-variant="normal" font-weight="400" text-anchor="start" text-decoration="none" transform="matrix(1 0 0 1 2312.29 1841)" unicode-bidi="normal" writing-mode="lr-tb">20</text></g><g clip-path="url(#clip9)"><text fill="#595959" fill-opacity="1" direction="ltr" font-family="Calibri,Calibri_MSFontService,sans-serif" font-size="41" font-stretch="normal" font-style="normal" font-variant="normal" font-weight="400" text-anchor="start" text-decoration="none" transform="matrix(1 0 0 1 2312.29 1739)" unicode-bidi="normal" writing-mode="lr-tb">25</text></g><g clip-path="url(#clip10)"><text fill="#595959" fill-opacity="1" direction="ltr" font-family="Calibri,Calibri_MSFontService,sans-serif" font-size="41" font-stretch="normal" font-style="normal" font-variant="normal" font-weight="400" text-anchor="start" text-decoration="none" transform="matrix(1 0 0 1 2312.29 1637)" unicode-bidi="normal" writing-mode="lr-tb">30</text></g><g clip-path="url(#clip11)"><text fill="#595959" fill-opacity="1" direction="ltr" font-family="Calibri,Calibri_MSFontService,sans-serif" font-size="41" font-stretch="normal" font-style="normal" font-variant="normal" font-weight="400" text-anchor="start" text-decoration="none" transform="matrix(1 0 0 1 2312.29 1535)" unicode-bidi="normal" writing-mode="lr-tb">35</text></g><g clip-path="url(#clip12)"><text fill="#595959" fill-opacity="1" direction="ltr" font-family="Calibri,Calibri_MSFontService,sans-serif" font-size="41" font-stretch="normal" font-style="normal" font-variant="normal" font-weight="400" text-anchor="start" text-decoration="none" transform="matrix(1 0 0 1 2418.25 2303)" unicode-bidi="normal" writing-mode="lr-tb">2015</text></g><g clip-path="url(#clip13)"><text fill="#595959" fill-opacity="1" direction="ltr" font-family="Calibri,Calibri_MSFontService,sans-serif" font-size="41" font-stretch="normal" font-style="normal" font-variant="normal" font-weight="400" text-anchor="start" text-decoration="none" transform="matrix(1 0 0 1 2553.69 2303)" unicode-bidi="normal" writing-mode="lr-tb">2016</text></g><g clip-path="url(#clip14)"><text fill="#595959" fill-opacity="1" direction="ltr" font-family="Calibri,Calibri_MSFontService,sans-serif" font-size="41" font-stretch="normal" font-style="normal" font-variant="normal" font-weight="400" text-anchor="start" text-decoration="none" transform="matrix(1 0 0 1 2689.12 2303)" unicode-bidi="normal" writing-mode="lr-tb">2017</text></g><g clip-path="url(#clip15)"><text fill="#595959" fill-opacity="1" direction="ltr" font-family="Calibri,Calibri_MSFontService,sans-serif" font-size="41" font-stretch="normal" font-style="normal" font-variant="normal" font-weight="400" text-anchor="start" text-decoration="none" transform="matrix(1 0 0 1 2824.55 2303)" unicode-bidi="normal" writing-mode="lr-tb">2018</text></g><g clip-path="url(#clip16)"><text fill="#595959" fill-opacity="1" direction="ltr" font-family="Calibri,Calibri_MSFontService,sans-serif" font-size="41" font-stretch="normal" font-style="normal" font-variant="normal" font-weight="400" text-anchor="start" text-decoration="none" transform="matrix(1 0 0 1 2959.98 2303)" unicode-bidi="normal" writing-mode="lr-tb">2019</text></g><g clip-path="url(#clip17)"><text fill="#595959" fill-opacity="1" direction="ltr" font-family="Calibri,Calibri_MSFontService,sans-serif" font-size="41" font-stretch="normal" font-style="normal" font-variant="normal" font-weight="400" text-anchor="start" text-decoration="none" transform="matrix(1 0 0 1 3095.41 2303)" unicode-bidi="normal" writing-mode="lr-tb">2020</text></g><g clip-path="url(#clip18)"><text fill="#595959" fill-opacity="1" direction="ltr" font-family="Calibri,Calibri_MSFontService,sans-serif" font-size="41" font-stretch="normal" font-style="normal" font-variant="normal" font-weight="400" text-anchor="start" text-decoration="none" transform="matrix(1 0 0 1 3230.84 2303)" unicode-bidi="normal" writing-mode="lr-tb">2021</text></g><g clip-path="url(#clip19)"><text fill="#595959" fill-opacity="1" direction="ltr" font-family="Calibri,Calibri_MSFontService,sans-serif" font-size="41" font-stretch="normal" font-style="normal" font-variant="normal" font-weight="400" text-anchor="start" text-decoration="none" transform="matrix(1 0 0 1 3366.27 2303)" unicode-bidi="normal" writing-mode="lr-tb">2022</text></g><g clip-path="url(#clip20)"><text fill="#595959" fill-opacity="1" direction="ltr" font-family="Calibri,Calibri_MSFontService,sans-serif" font-size="41" font-stretch="normal" font-style="normal" font-variant="normal" font-weight="400" text-anchor="start" text-decoration="none" transform="matrix(1 0 0 1 3501.71 2303)" unicode-bidi="normal" writing-mode="lr-tb">2023</text></g><g clip-path="url(#clip21)"><text fill="#595959" fill-opacity="1" direction="ltr" font-family="Calibri,Calibri_MSFontService,sans-serif" font-size="41" font-stretch="normal" font-style="normal" font-variant="normal" font-weight="400" text-anchor="start" text-decoration="none" transform="matrix(1 0 0 1 3637.14 2303)" unicode-bidi="normal" writing-mode="lr-tb">2024</text></g><g clip-path="url(#clip22)"><text fill="#595959" fill-opacity="1" direction="ltr" font-family="Calibri,Calibri_MSFontService,sans-serif" font-size="41" font-stretch="normal" font-style="normal" font-variant="normal" font-weight="400" text-anchor="start" text-decoration="none" transform="matrix(1 0 0 1 3772.57 2303)" unicode-bidi="normal" writing-mode="lr-tb">2025</text></g><g clip-path="url(#clip23)"><text fill="#595959" fill-opacity="1" direction="ltr" font-family="Calibri,Calibri_MSFontService,sans-serif" font-size="64" font-stretch="normal" font-style="normal" font-variant="normal" font-weight="400" text-anchor="start" text-decoration="none" transform="matrix(1 0 0 1 2803.9 1450)" unicode-bidi="normal" writing-mode="lr-tb">Active devices (billions)</text></g><rect width="1649" height="990" x="2283.5" y="1354.5" fill="none" stroke="#D9D9D9" stroke-linecap="butt" stroke-linejoin="round" stroke-miterlimit="10" stroke-opacity="1" stroke-width="3.438"/></g></svg>